<svg xmlns="http://www.w3.org/2000/svg" viewBox="0 0 24 24" fill="#ffffff" width="24px" height="24px">
    <path d="M12 0C5.37 0 0 5.37 0 12c0 5.3 3.438 9.8 8.205 11.385.6.11.82-.26.82-.577v-2.234c-3.338.726-4.042-1.61-4.042-1.61-.546-1.387-1.333-1.756-1.333-1.756-1.09-.744.083-.729.083-.729 1.205.084 1.84 1.237 1.84 1.237 1.07 1.835 2.807 1.305 3.492.998.108-.775.418-1.305.762-1.605-2.665-.305-5.466-1.332-5.466-5.93 0-1.31.467-2.38 1.235-3.22-.123-.303-.535-1.523.117-3.176 0 0 1.007-.322 3.3 1.23.957-.266 1.983-.399 3.003-.404 1.02.005 2.047.138 3.006.404 2.29-1.552 3.295-1.23 3.295-1.23.655 1.653.243 2.873.12 3.176.77.84 1.233 1.91 1.233 3.22 0 4.61-2.807 5.62-5.48 5.92.43.37.823 1.1.823 2.22v3.293c0 .32.22.694.825.577C20.565 21.8 24 17.3 24 12c0-6.63-5.37-12-12-12z"/>
</svg>
